<?xml version="1.0" encoding="utf-8"?><svg xmlns="http://www.w3.org/2000/svg" xmlns:xlink="http://www.w3.org/1999/xlink"><symbol viewBox="0 0 522.468 522.469" id="code" xmlns="http://www.w3.org/2000/svg"><path d="M325.762 70.513l-17.706-4.854c-2.279-.76-4.524-.521-6.707.715-2.19 1.237-3.669 3.094-4.429 5.568L190.426 440.53c-.76 2.475-.522 4.809.715 6.995 1.237 2.19 3.09 3.665 5.568 4.425l17.701 4.856c2.284.766 4.521.526 6.71-.712 2.19-1.243 3.666-3.094 4.425-5.564L332.042 81.936c.759-2.474.523-4.808-.716-6.999-1.238-2.19-3.089-3.665-5.564-4.424zm-159.595 71.952c0-2.474-.953-4.665-2.856-6.567l-14.277-14.276c-1.903-1.903-4.093-2.857-6.567-2.857s-4.665.955-6.567 2.857L2.856 254.666C.95 256.569 0 258.759 0 261.233s.953 4.664 2.856 6.566l133.043 133.044c1.902 1.906 4.089 2.854 6.567 2.854s4.665-.951 6.567-2.854l14.277-14.268c1.903-1.902 2.856-4.093 2.856-6.57 0-2.471-.953-4.661-2.856-6.563L51.107 261.233l112.204-112.201c1.906-1.902 2.856-4.093 2.856-6.567zm353.447 112.198L386.567 121.619c-1.902-1.902-4.093-2.857-6.563-2.857-2.478 0-4.661.955-6.57 2.857l-14.271 14.275c-1.902 1.903-2.851 4.09-2.851 6.567s.948 4.665 2.851 6.567l112.206 112.204-112.206 112.21c-1.902 1.902-2.851 4.093-2.851 6.563 0 2.478.948 4.668 2.851 6.57l14.271 14.268c1.909 1.906 4.093 2.854 6.57 2.854 2.471 0 4.661-.951 6.563-2.854L519.614 267.8c1.903-1.902 2.854-4.096 2.854-6.57 0-2.475-.951-4.665-2.854-6.567z"/></symbol><symbol viewBox="0 0 512 512" id="coding" xmlns="http://www.w3.org/2000/svg"><path d="M477.858 8.533H34.142C15.317 8.533 0 23.851 0 42.675v281.591a8.536 8.536 0 0 0 8.533 8.533h494.933a8.536 8.536 0 0 0 8.533-8.533V42.675C512 23.851 496.683 8.533 477.858 8.533zm17.075 307.2H17.067V42.675c0-9.421 7.663-17.075 17.075-17.075h443.716c9.412 0 17.075 7.654 17.075 17.075v273.058z"/><path d="M503.467 315.733H8.533A8.536 8.536 0 0 0 0 324.266v42.658c0 18.825 15.317 34.142 34.142 34.142h443.716c18.825 0 34.142-15.317 34.142-34.142v-42.658a8.536 8.536 0 0 0-8.533-8.533zm-8.534 51.192c0 9.421-7.663 17.075-17.075 17.075H34.142c-9.412 0-17.075-7.654-17.075-17.075V332.8h477.867v34.125z"/><path d="M281.6 349.867h-51.2c-4.71 0-8.533 3.823-8.533 8.533s3.823 8.533 8.533 8.533h51.2c4.71 0 8.533-3.823 8.533-8.533s-3.823-8.533-8.533-8.533zm187.733-307.2H42.667a8.536 8.536 0 0 0-8.533 8.533v273.067a8.536 8.536 0 0 0 8.533 8.533h426.667a8.536 8.536 0 0 0 8.533-8.533V51.2c0-4.71-3.823-8.533-8.534-8.533zM460.8 315.733H51.2v-256h409.6v256zm-93.867 136.534H145.067c-14.114 0-25.6 11.486-25.6 25.6s11.486 25.6 25.6 25.6h221.867c14.114 0 25.6-11.486 25.6-25.6s-11.487-25.6-25.601-25.6zm0 34.133H145.067c-4.71 0-8.533-3.831-8.533-8.533s3.823-8.533 8.533-8.533h221.867c4.71 0 8.533 3.831 8.533 8.533s-3.823 8.533-8.534 8.533z"/><path d="M349.867 452.267c-28.314 0-42.667-20.096-42.667-59.733a8.536 8.536 0 0 0-8.533-8.533h-85.333a8.536 8.536 0 0 0-8.533 8.533c0 39.637-14.353 59.733-42.667 59.733a8.536 8.536 0 0 0-8.533 8.533 8.536 8.536 0 0 0 8.533 8.533h187.733a8.536 8.536 0 0 0 8.533-8.533 8.536 8.536 0 0 0-8.533-8.533zm-146.168 0c10.505-11.639 16.691-28.971 17.937-51.2h68.736c1.237 22.229 7.424 39.561 17.937 51.2h-104.61zM256 76.8c-61.167 0-110.933 49.766-110.933 110.933S194.833 298.667 256 298.667 366.933 248.9 366.933 187.733 317.167 76.8 256 76.8zm0 204.8c-51.755 0-93.867-42.112-93.867-93.867S204.245 93.867 256 93.867s93.867 42.112 93.867 93.867S307.755 281.6 256 281.6z"/><path d="M199.799 187.733l19.567-19.567a8.523 8.523 0 0 0 0-12.066 8.523 8.523 0 0 0-12.066 0l-25.6 25.6a8.523 8.523 0 0 0 0 12.066l25.6 25.6a8.51 8.51 0 0 0 6.033 2.5 8.509 8.509 0 0 0 6.033-2.5 8.523 8.523 0 0 0 0-12.066l-19.567-19.567zM330.3 181.7l-25.6-25.6a8.523 8.523 0 0 0-12.066 0 8.523 8.523 0 0 0 0 12.066l19.567 19.567-19.567 19.567a8.523 8.523 0 0 0 0 12.066 8.51 8.51 0 0 0 6.033 2.5 8.509 8.509 0 0 0 6.033-2.5l25.6-25.6a8.525 8.525 0 0 0 0-12.066zm-54.537-53.265c-4.446-1.485-9.301.93-10.795 5.393l-34.133 102.4a8.542 8.542 0 0 0 5.402 10.795 8.454 8.454 0 0 0 2.697.444 8.542 8.542 0 0 0 8.098-5.837l34.133-102.4a8.542 8.542 0 0 0-5.402-10.795zM110.933 76.8H76.8a8.536 8.536 0 0 0-8.533 8.533v34.133c0 4.71 3.823 8.533 8.533 8.533s8.533-3.823 8.533-8.533v-25.6h25.6c4.71 0 8.533-3.823 8.533-8.533s-3.822-8.533-8.533-8.533zM435.2 247.467a8.536 8.536 0 0 0-8.533 8.533v25.6h-25.6c-4.71 0-8.533 3.823-8.533 8.533s3.823 8.533 8.533 8.533H435.2a8.536 8.536 0 0 0 8.533-8.533V256a8.536 8.536 0 0 0-8.533-8.533z"/></symbol><symbol viewBox="0 0 96.124 96.123" id="fb" xmlns="http://www.w3.org/2000/svg"><path d="M72.089.02L59.624 0C45.62 0 36.57 9.285 36.57 23.656v10.907H24.037a1.96 1.96 0 0 0-1.96 1.961v15.803a1.96 1.96 0 0 0 1.96 1.96H36.57v39.876a1.96 1.96 0 0 0 1.96 1.96h16.352a1.96 1.96 0 0 0 1.96-1.96V54.287h14.654a1.96 1.96 0 0 0 1.96-1.96l.006-15.803a1.963 1.963 0 0 0-1.961-1.961H56.842v-9.246c0-4.444 1.059-6.7 6.848-6.7l8.397-.003a1.96 1.96 0 0 0 1.959-1.96V1.98A1.96 1.96 0 0 0 72.089.02z"/></symbol><symbol viewBox="0 0 438.549 438.549" id="git" xmlns="http://www.w3.org/2000/svg"><path d="M409.132 114.573c-19.608-33.596-46.205-60.194-79.798-79.8-33.598-19.607-70.277-29.408-110.063-29.408-39.781 0-76.472 9.804-110.063 29.408-33.596 19.605-60.192 46.204-79.8 79.8C9.803 148.168 0 184.854 0 224.63c0 47.78 13.94 90.745 41.827 128.906 27.884 38.164 63.906 64.572 108.063 79.227 5.14.954 8.945.283 11.419-1.996 2.475-2.282 3.711-5.14 3.711-8.562 0-.571-.049-5.708-.144-15.417a2549.81 2549.81 0 0 1-.144-25.406l-6.567 1.136c-4.187.767-9.469 1.092-15.846 1-6.374-.089-12.991-.757-19.842-1.999-6.854-1.231-13.229-4.086-19.13-8.559-5.898-4.473-10.085-10.328-12.56-17.556l-2.855-6.57c-1.903-4.374-4.899-9.233-8.992-14.559-4.093-5.331-8.232-8.945-12.419-10.848l-1.999-1.431c-1.332-.951-2.568-2.098-3.711-3.429-1.142-1.331-1.997-2.663-2.568-3.997-.572-1.335-.098-2.43 1.427-3.289 1.525-.859 4.281-1.276 8.28-1.276l5.708.853c3.807.763 8.516 3.042 14.133 6.851 5.614 3.806 10.229 8.754 13.846 14.842 4.38 7.806 9.657 13.754 15.846 17.847 6.184 4.093 12.419 6.136 18.699 6.136 6.28 0 11.704-.476 16.274-1.423 4.565-.952 8.848-2.383 12.847-4.285 1.713-12.758 6.377-22.559 13.988-29.41-10.848-1.14-20.601-2.857-29.264-5.14-8.658-2.286-17.605-5.996-26.835-11.14-9.235-5.137-16.896-11.516-22.985-19.126-6.09-7.614-11.088-17.61-14.987-29.979-3.901-12.374-5.852-26.648-5.852-42.826 0-23.035 7.52-42.637 22.557-58.817-7.044-17.318-6.379-36.732 1.997-58.24 5.52-1.715 13.706-.428 24.554 3.853 10.85 4.283 18.794 7.952 23.84 10.994 5.046 3.041 9.089 5.618 12.135 7.708 17.705-4.947 35.976-7.421 54.818-7.421s37.117 2.474 54.823 7.421l10.849-6.849c7.419-4.57 16.18-8.758 26.262-12.565 10.088-3.805 17.802-4.853 23.134-3.138 8.562 21.509 9.325 40.922 2.279 58.24 15.036 16.18 22.559 35.787 22.559 58.817 0 16.178-1.958 30.497-5.853 42.966-3.9 12.471-8.941 22.457-15.125 29.979-6.191 7.521-13.901 13.85-23.131 18.986-9.232 5.14-18.182 8.85-26.84 11.136-8.662 2.286-18.415 4.004-29.263 5.146 9.894 8.562 14.842 22.077 14.842 40.539v60.237c0 3.422 1.19 6.279 3.572 8.562 2.379 2.279 6.136 2.95 11.276 1.995 44.163-14.653 80.185-41.062 108.068-79.226 27.88-38.161 41.825-81.126 41.825-128.906-.01-39.771-9.818-76.454-29.414-110.049z"/></symbol><symbol viewBox="0 0 512 512" id="landingpage" xmlns="http://www.w3.org/2000/svg"><path d="M407.74 430.091a10.098 10.098 0 0 0-1.49-3.599c-.37-.551-.79-1.061-1.25-1.521a9.57 9.57 0 0 0-1.52-1.24c-.54-.359-1.12-.67-1.72-.92-.61-.25-1.24-.45-1.87-.569-3.25-.66-6.7.409-9.03 2.729-.46.46-.88.97-1.24 1.521a10.098 10.098 0 0 0-1.69 5.549c0 .649.07 1.31.2 1.95.13.639.32 1.269.57 1.879.25.6.56 1.18.92 1.72.36.55.78 1.06 1.24 1.52a10.077 10.077 0 0 0 7.07 2.931c.65 0 1.31-.061 1.96-.19.63-.13 1.26-.33 1.87-.58.6-.25 1.18-.55 1.72-.91a10.153 10.153 0 0 0 2.77-2.77c.36-.54.67-1.12.92-1.72.25-.61.44-1.24.57-1.88.13-.641.19-1.301.19-1.95 0-.65-.06-1.311-.19-1.95zm-47.809-8.05H114.068c-5.523 0-10 4.478-10 10s4.477 10 10 10h245.863c5.523 0 10-4.478 10-10s-4.477-10-10-10zM121.14 462.76a9.57 9.57 0 0 0-1.52-1.24 9.937 9.937 0 0 0-1.73-.92c-.6-.25-1.23-.45-1.87-.58-1.29-.25-2.62-.25-3.91 0a10.217 10.217 0 0 0-3.59 1.5c-.55.36-1.06.78-1.52 1.24-.46.46-.88.97-1.25 1.521a10.098 10.098 0 0 0-1.49 3.599c-.13.64-.19 1.3-.19 1.95a9.847 9.847 0 0 0 .76 3.819 9.87 9.87 0 0 0 2.17 3.25c.46.46.97.881 1.52 1.24.54.36 1.12.67 1.72.92.61.25 1.24.45 1.87.57.65.13 1.31.2 1.96.2.65 0 1.31-.07 1.95-.2.64-.12 1.27-.32 1.87-.57a9.87 9.87 0 0 0 1.73-.92c.55-.359 1.06-.78 1.52-1.24.46-.46.88-.97 1.24-1.52.36-.54.67-1.12.92-1.73a10.089 10.089 0 0 0 .77-3.819c0-2.63-1.07-5.21-2.93-7.07zm276.792-2.93H152.069c-5.523 0-10 4.478-10 10s4.477 10 10 10h245.863c5.523 0 10-4.478 10-10s-4.477-10-10-10z"/><path d="M448.185 0H63.815c-5.523 0-10 4.478-10 10v492c0 5.522 4.477 10 10 10h384.369c5.523 0 10-4.478 10-10V10h.001c0-5.522-4.477-10-10-10zM73.815 20h364.369v178.673h-28.911L319.996 79.635a10.002 10.002 0 0 0-16 0l-63.258 84.345-46.246-53.551a10 10 0 0 0-15.136 0l-76.205 88.243H73.815V20zm233.248 133.702h-33.616l7.067-9.424h62.964l40.795 54.395H239.719l18.728-24.971h48.616c5.523 0 10-4.478 10-10s-4.477-10-10-10zm-11.549-29.424l16.482-21.977 16.482 21.977h-32.964zm-67.059 56.079l-13.47 17.961-.266.355h-85.143l57.348-66.407 41.531 48.091zm-154.64 38.319h364.369v128.673H73.815V218.676zm0 148.673h364.369v21H73.815v-21zm0 124.651v-83.651h364.369V492H73.815z"/><path d="M230.586 32.559c-19.527 0-35.413 15.887-35.413 35.413s15.887 35.413 35.413 35.413c19.527 0 35.414-15.887 35.414-35.413s-15.886-35.413-35.414-35.413zm0 50.826c-8.499 0-15.413-6.914-15.413-15.413s6.914-15.413 15.413-15.413S246 59.473 246 67.972s-6.915 15.413-15.414 15.413zm-53.081 154.136h-67.154c-5.523 0-10 4.478-10 10v68.333c0 5.522 4.477 10 10 10h67.154c5.523 0 10-4.478 10-10v-68.333c0-5.523-4.477-10-10-10zm-10 68.333h-47.154v-48.333h47.154v48.333zm122.072-68.333h-67.153c-5.523 0-10 4.478-10 10v68.333c0 5.522 4.477 10 10 10h67.153c5.523 0 10-4.478 10-10v-68.333c0-5.523-4.477-10-10-10zm-10 68.333h-47.153v-48.333h47.153v48.333zm122.072-68.333h-67.154c-5.523 0-10 4.478-10 10v68.333c0 5.522 4.477 10 10 10h67.154c5.523 0 10-4.478 10-10v-68.333c0-5.522-4.477-10-10-10zm-10 68.333h-47.154v-48.333h47.154v48.333z"/></symbol><symbol viewBox="0 0 512 512" id="profiles" xmlns="http://www.w3.org/2000/svg"><path d="M362.937 0h-294c-16.542 0-30 13.458-30 30v102c0 5.523 4.478 10 10 10s10-4.477 10-10V30c0-5.514 4.486-10 10-10h294c5.514 0 10 4.486 10 10v372c0 5.514-4.486 10-10 10h-294c-5.514 0-10-4.486-10-10V216.333c0-5.523-4.478-10-10-10s-10 4.477-10 10V402c0 16.542 13.458 30 30 30h294c16.542 0 30-13.458 30-30V30c0-16.542-13.458-30-30-30z"/><path d="M56.006 169.7c-1.859-1.86-4.439-2.92-7.069-2.92s-5.21 1.06-7.07 2.92a10.107 10.107 0 0 0-2.93 7.07 10.1 10.1 0 0 0 2.93 7.08c1.86 1.86 4.44 2.93 7.07 2.93 2.629 0 5.209-1.07 7.069-2.93a10.078 10.078 0 0 0 2.931-7.08c0-2.63-1.071-5.2-2.931-7.07zm40.06 285.29a10.056 10.056 0 0 0-7.07-2.93c-2.63 0-5.21 1.07-7.069 2.93a10.072 10.072 0 0 0-2.931 7.07c0 2.64 1.071 5.21 2.931 7.07a10.029 10.029 0 0 0 7.069 2.93c2.641 0 5.21-1.06 7.07-2.93a10.054 10.054 0 0 0 2.93-7.07c0-2.63-1.07-5.21-2.93-7.07zM423 40.063c-5.522 0-10 4.477-10 10v392c0 5.514-4.486 10-10 10H129c-5.522 0-10 4.477-10 10s4.478 10 10 10h274c16.542 0 30-13.458 30-30v-392c0-5.523-4.478-10-10-10z"/><path d="M463.063 80c-5.522 0-10 4.477-10 10v392c0 5.514-4.486 10-10 10h-314c-5.522 0-10 4.477-10 10s4.478 10 10 10h314c16.542 0 30-13.458 30-30V90c0-5.523-4.478-10-10-10zm-262.126-6h-96c-5.522 0-10 4.477-10 10v96c0 5.523 4.478 10 10 10h96c5.522 0 10-4.477 10-10V84c0-5.523-4.478-10-10-10zm-10 96h-76V94h76v76zm-22.176 65.402c-3.906-3.904-10.236-3.905-14.143 0l-26.583 26.583-12.36-12.361c-3.905-3.905-10.235-3.904-14.143 0-3.905 3.905-3.905 10.237 0 14.142l19.432 19.432a10.003 10.003 0 0 0 14.143 0l33.654-33.654c3.905-3.905 3.905-10.237 0-14.142z"/><path d="M332.604 249H215.937c-5.522 0-10 4.477-10 10s4.478 10 10 10h116.667c5.522 0 10-4.477 10-10s-4.478-10-10-10zm-5.667-175h-70c-5.522 0-10 4.477-10 10s4.478 10 10 10h70c5.522 0 10-4.477 10-10s-4.478-10-10-10zm0 48h-70c-5.522 0-10 4.477-10 10s4.478 10 10 10h70c5.522 0 10-4.477 10-10s-4.478-10-10-10zm0 48h-70c-5.522 0-10 4.477-10 10s4.478 10 10 10h70c5.522 0 10-4.477 10-10s-4.478-10-10-10zM168.761 311.769c-3.906-3.904-10.236-3.905-14.143 0l-26.583 26.583-12.36-12.361c-3.905-3.905-10.235-3.904-14.143 0-3.905 3.905-3.905 10.237 0 14.142l19.432 19.432a10.003 10.003 0 0 0 14.143 0l33.654-33.654c3.905-3.905 3.905-10.237 0-14.142zM332.604 325H215.937c-5.522 0-10 4.477-10 10s4.478 10 10 10h116.667c5.522 0 10-4.477 10-10s-4.478-10-10-10z"/></symbol><symbol viewBox="0 0 420.555 420.555" id="tools" xmlns="http://www.w3.org/2000/svg"><path d="M419.658 319.097a73.2 73.2 0 0 0-18.48-30.64 72.719 72.719 0 0 0-51.76-21.44 73.592 73.592 0 0 0-28.88 5.92l-72-72 95.6-94.88 22.64-.64a8 8 0 0 0 6.64-3.92l32.4-54.48a8 8 0 0 0-1.2-9.76l-28-28a8 8 0 0 0-9.76-1.2l-54.48 32.4a8 8 0 0 0-3.92 6.64l-.64 22.56-95.36 95.2-65.44-65.44c6.871-39.839-19.855-77.705-59.694-84.576a73.197 73.197 0 0 0-53.026 11.216 8 8 0 0 0 .56 13.6l36.32 20.24c8 4.56 9.6 18.16 3.12 29.68-6.48 11.52-18.88 17.44-26.96 12.96l-33.68-18.24a8 8 0 0 0-11.839 7.52c2.531 40.348 37.292 71.004 77.64 68.473a73.203 73.203 0 0 0 24.2-5.753l59.52 59.52-25.76 25.76-5.84-5.76c-6.465-6.187-16.655-6.187-23.12 0l-8 8c-6.095 5.934-6.481 15.599-.88 22l-94.64 94.48c-6.384 6.109-6.607 16.238-.498 22.622.162.17.328.336.498.498l27.04 27.04c6.109 6.384 16.238 6.607 22.622.498.17-.162.336-.328.498-.498l94.72-94.64c6.401 5.601 16.066 5.215 22-.88l8-8c6.384-6.109 6.607-16.238.498-22.622-.162-.17-.328-.336-.498-.498l-5.84-5.84 25.6-26.16 77.6 77.6c-6.704 39.868 20.18 77.621 60.048 84.325a73.199 73.199 0 0 0 64.432-20.965 8 8 0 0 0-3.6-12.96l-45.04-12.08a14.8 14.8 0 0 1-9.44-9.2 29.362 29.362 0 0 1-.8-18.88c3.36-12.56 14-21.52 22.96-19.12l44.56 12a7.516 7.516 0 0 0 2.16 0 7.999 7.999 0 0 0 7.199-11.68zm-98.48-240.56a7.998 7.998 0 0 0 2.32-5.44l.64-21.36 45.36-26.96 19.2 19.2-26.4 45.28-21.76.8c-2.043.05-3.99.88-5.44 2.32l-97.6 97.52-13.76-13.76 97.44-97.6zm-277.44 318.8l-27.44-27.28 95.12-94.88 13.76 13.76 13.12 13.6-94.56 94.8zm117.04-96l-10.56-10.64-4.08-4.08-33.6-33.84 8-8 48 48.64-7.76 7.92zm1.52-36.48l-13.76-13.76 25.76-25.76 13.76 13.76-25.76 25.76zm207.36 38.48a28.008 28.008 0 0 0-7.28-.96c-17.441 1.408-31.837 14.204-35.28 31.36a45.362 45.362 0 0 0 1.52 29.2 30.481 30.481 0 0 0 20.08 18.4l29.76 8c-27.138 16.171-62.247 7.281-78.418-19.856a57.202 57.202 0 0 1-6.542-42.384 8 8 0 0 0-2.16-7.44l-180.32-180.48a8 8 0 0 0-9.44-1.12 57.442 57.442 0 0 1-26.8 6.64c-24.069.021-45.568-15.048-53.76-37.68l18.24 10.16a28.24 28.24 0 0 0 13.92 3.6 41.759 41.759 0 0 0 34.8-22.72c10.88-19.44 6.64-42.56-9.36-51.52l-23.28-13.2c29.75-10.627 62.481 4.876 73.108 34.625a57.206 57.206 0 0 1 1.852 32.175 8 8 0 0 0 2.16 7.44l180.72 180.64a8 8 0 0 0 9.36 1.44 57.53 57.53 0 0 1 26.8-6.64 57.121 57.121 0 0 1 49.28 28.16l-28.96-7.84z"/></symbol><symbol viewBox="0 0 548.358 548.358" id="vk" xmlns="http://www.w3.org/2000/svg"><path d="M545.451 400.298c-.664-1.431-1.283-2.618-1.858-3.569-9.514-17.135-27.695-38.167-54.532-63.102l-.567-.571-.284-.28-.287-.287h-.288c-12.18-11.611-19.893-19.418-23.123-23.415-5.91-7.614-7.234-15.321-4.004-23.13 2.282-5.9 10.854-18.36 25.696-37.397 7.807-10.089 13.99-18.175 18.556-24.267 32.931-43.78 47.208-71.756 42.828-83.939l-1.701-2.847c-1.143-1.714-4.093-3.282-8.846-4.712-4.764-1.427-10.853-1.663-18.278-.712l-82.224.568c-1.332-.472-3.234-.428-5.712.144l-3.713.859-1.431.715-1.136.859c-.952.568-1.999 1.567-3.142 2.995-1.137 1.423-2.088 3.093-2.848 4.996-8.952 23.031-19.13 44.444-30.553 64.238-7.043 11.803-13.511 22.032-19.418 30.693-5.899 8.658-10.848 15.037-14.842 19.126-4 4.093-7.61 7.372-10.852 9.849-3.237 2.478-5.708 3.525-7.419 3.142-1.715-.383-3.33-.763-4.859-1.143-2.663-1.714-4.805-4.045-6.42-6.995-1.622-2.95-2.714-6.663-3.285-11.136-.568-4.476-.904-8.326-1-11.563-.089-3.233-.048-7.806.145-13.706.198-5.903.287-9.897.287-11.991 0-7.234.141-15.085.424-23.555.288-8.47.521-15.181.716-20.125.194-4.949.284-10.185.284-15.705s-.336-9.849-1-12.991a44.442 44.442 0 0 0-2.99-9.137c-1.335-2.95-3.289-5.232-5.853-6.852-2.569-1.618-5.763-2.902-9.564-3.856-10.089-2.283-22.936-3.518-38.547-3.71-35.401-.38-58.148 1.906-68.236 6.855-3.997 2.091-7.614 4.948-10.848 8.562-3.427 4.189-3.905 6.475-1.431 6.851 11.422 1.711 19.508 5.804 24.267 12.275l1.715 3.429c1.334 2.474 2.666 6.854 3.999 13.134 1.331 6.28 2.19 13.227 2.568 20.837.95 13.897.95 25.793 0 35.689-.953 9.9-1.853 17.607-2.712 23.127-.859 5.52-2.143 9.993-3.855 13.418-1.715 3.426-2.856 5.52-3.428 6.28-.571.76-1.047 1.239-1.425 1.427a21.387 21.387 0 0 1-7.71 1.431c-2.667 0-5.901-1.334-9.707-4-3.805-2.666-7.754-6.328-11.847-10.992-4.093-4.665-8.709-11.184-13.85-19.558-5.137-8.374-10.467-18.271-15.987-29.691l-4.567-8.282c-2.855-5.328-6.755-13.086-11.704-23.267-4.952-10.185-9.329-20.037-13.134-29.554-1.521-3.997-3.806-7.04-6.851-9.134l-1.429-.859c-.95-.76-2.475-1.567-4.567-2.427a30.301 30.301 0 0 0-6.567-1.854l-78.229.568c-7.994 0-13.418 1.811-16.274 5.428l-1.143 1.711c-.571.953-.859 2.475-.859 4.57 0 2.094.571 4.664 1.714 7.707 11.42 26.84 23.839 52.725 37.257 77.659 13.418 24.934 25.078 45.019 34.973 60.237 9.897 15.229 19.985 29.602 30.264 43.112 10.279 13.515 17.083 22.176 20.412 25.981 3.333 3.812 5.951 6.662 7.854 8.565l7.139 6.851c4.568 4.569 11.276 10.041 20.127 16.416 8.853 6.379 18.654 12.659 29.408 18.85 10.756 6.181 23.269 11.225 37.546 15.126 14.275 3.905 28.169 5.472 41.684 4.716h32.834c6.659-.575 11.704-2.669 15.133-6.283l1.136-1.431c.764-1.136 1.479-2.901 2.139-5.276.668-2.379 1-5 1-7.851-.195-8.183.428-15.558 1.852-22.124 1.423-6.564 3.045-11.513 4.859-14.846 1.813-3.33 3.859-6.14 6.136-8.418 2.282-2.283 3.908-3.666 4.862-4.142.948-.479 1.705-.804 2.276-.999 4.568-1.522 9.944-.048 16.136 4.429 6.187 4.473 11.99 9.996 17.418 16.56 5.425 6.57 11.943 13.941 19.555 22.124 7.617 8.186 14.277 14.271 19.985 18.274l5.708 3.426c3.812 2.286 8.761 4.38 14.853 6.283 6.081 1.902 11.409 2.378 15.984 1.427l73.087-1.14c7.229 0 12.854-1.197 16.844-3.572 3.998-2.379 6.373-5 7.139-7.851.764-2.854.805-6.092.145-9.712-.677-3.611-1.344-6.136-2.008-7.563z"/></symbol><symbol viewBox="0 0 480 480" id="web" xmlns="http://www.w3.org/2000/svg"><path d="M392 0H88C65.92.026 48.026 17.92 48 40v216c.026 22.08 17.92 39.974 40 40h109.392l-11.424 40H160v16h160v-16h-25.968l-11.424-40H392c22.08-.026 39.974-17.92 40-40V40c-.026-22.08-17.92-39.974-40-40zM202.608 336l11.424-40h51.936l11.424 40h-74.784zM416 256c0 13.255-10.745 24-24 24H88c-13.255 0-24-10.745-24-24v-16h352v16zm0-32H64V40c0-13.255 10.745-24 24-24h304c13.255 0 24 10.745 24 24v184zM304 368H80a8 8 0 0 0-8 8v96a8 8 0 0 0 8 8h224a8 8 0 0 0 8-8v-96a8 8 0 0 0-8-8zm-8 96H88v-80h208v80z"/><path d="M104 432h16v16h-16zm0-32h16v16h-16zm32 0h16v16h-16zm32 0h16v16h-16zm64 0h16v16h-16zm-32 0h16v16h-16zm64 32h16v16h-16zm0-32h16v16h-16zm-128 32h112v16H136zm232-64c-22.091 0-40 17.909-40 40v32c0 22.091 17.909 40 40 40s40-17.909 40-40v-32c0-22.091-17.909-40-40-40zm24 72c0 13.255-10.745 24-24 24s-24-10.745-24-24v-32c0-13.255 10.745-24 24-24s24 10.745 24 24v32z"/><path d="M360 400h16v16h-16zM216.243 181.904l32.03-111.936 15.376 4.4-32.03 111.936zm-19.123-87.76l-10.24-12.288-48 40a8 8 0 0 0 0 12.288l48 40 10.24-12.288L156.496 128l40.624-33.856zm145.02 28.732a7.991 7.991 0 0 0-1.02-1.02l-48-40-10.24 12.288L323.504 128l-40.624 33.856 10.24 12.288 48-40a8 8 0 0 0 1.02-11.268z"/></symbol><symbol viewBox="0 0 512 512" id="wordpress" xmlns="http://www.w3.org/2000/svg"><path d="M504.686 80.457C492.8 50.286 480 40.229 428.8 40.229c-31.086 0-54.857 23.771-54.857 54.857 0 16.457 9.143 32 18.286 48.457 2.743 6.4 7.314 12.8 10.057 19.2l3.657 7.314c8.229 16.457 13.714 28.343 13.714 53.029 0 10.057-1.829 21.029-6.4 36.571v.914l-30.171 90.514-78.356-222.007c2.651-.342 5.303-.699 7.956-1.078 14.629 0 26.514-12.8 26.514-27.429 0-15.543-11.886-27.429-27.429-27.429h-1.829c-35.657 5.486-71.314 5.486-106.971 0h-1.829c-15.543 0-27.429 11.886-27.429 27.429C173.714 115.2 185.6 128 200.229 128c3.063.459 6.158.882 9.264 1.286L246.857 224l-45.714 134.4-82.293-230.244c.307-.053.614-.101.921-.156 14.629-.914 26.514-12.8 26.514-27.429 0-15.543-11.886-27.429-27.429-27.429h-1.829c-29.257 5.486-58.514 5.486-87.771 0h-1.829C11.886 73.143 0 85.029 0 100.571c0 14.373 11.476 26.09 25.752 27.363L138.057 435.2c6.4 17.371 20.114 30.171 38.4 34.743 4.571.914 8.229 1.829 12.8 1.829 22.857 0 44.8-15.543 52.114-37.486l52.114-155.429 54.857 155.429c4.571 12.8 13.714 21.943 23.771 25.6 9.143 3.657 19.2 2.743 28.343-1.829 11.886-4.571 21.029-14.629 24.686-26.514L492.8 228.571c15.543-39.314 19.2-74.057 19.2-96v-14.629c0-12.799-1.829-25.599-7.314-37.485zm-303.543 29.257c-5.486 0-9.143-3.657-9.143-9.143 0-4.571 3.657-9.143 8.229-9.143 37.486 6.4 74.057 6.4 112.457 0 4.571 0 8.229 4.571 8.229 9.143 0 5.486-3.657 9.143-9.143 9.143h-1.829c-5.44.837-10.879 1.53-16.319 2.112a14.227 14.227 0 0 0-2.881-.283 334.267 334.267 0 0 1-74.057 0l-.052.002a357.019 357.019 0 0 1-13.662-1.831h-1.829zm-182.857-9.143c0-4.571 3.657-9.143 8.229-9.143 31.086 6.4 62.171 6.4 93.257 0 4.571 0 8.229 4.571 8.229 9.143 0 5.486-3.657 9.143-9.143 9.143h-1.829a244.044 244.044 0 0 1-11.349 1.849c-.178-.008-.356-.02-.537-.02-1.527.244-3.059.469-4.594.681-21.34 2.499-42.679 2.065-64.019-1.273-.596-.109-1.192-.208-1.787-.322-.08 0-.16.007-.24.008a246.207 246.207 0 0 1-5.246-.922h-1.829c-5.485-.001-9.142-3.658-9.142-9.144zM492.8 133.486c0 20.114-2.743 53.029-17.371 89.6l-68.571 202.971c-2.743 7.314-8.229 12.8-15.543 15.543-4.571 1.829-9.143 2.743-13.714.914-5.486-1.829-10.971-7.314-13.714-14.629l-64-179.2c-.914-3.657-4.571-6.4-8.229-6.4-3.657 0-7.314 2.743-8.229 6.4L224 427.886c-5.486 17.371-24.686 28.343-42.971 23.771-11.886-2.743-21.029-10.971-25.6-22.857L46.708 130.96c8.812 1.009 17.623 1.612 26.435 1.612 9.155 0 18.31-.647 27.464-1.729l93.221 258.643c.914 3.657 4.571 6.4 8.229 6.4 3.657 0 7.314-2.743 8.229-6.4l54.857-162.743c.914-1.829.914-4.571 0-6.4l-34.445-88.832c8.508.668 17 1.061 25.302 1.061 9.879 0 20.03-.547 30.299-1.471l89.472 251.071c.914 3.657 4.571 6.4 8.229 6.4s7.314-2.743 8.229-6.4l38.4-114.286c.914-.914.914-.914.914-1.829 5.486-17.371 7.314-31.086 7.314-42.057 0-29.257-7.314-43.886-15.543-61.257l-3.657-7.314c-3.657-6.4-7.314-13.714-10.971-20.114-8.229-13.715-15.543-27.429-15.543-39.315 0-23.771 19.2-36.571 36.571-36.571 47.543 0 51.2 9.143 57.6 28.343 3.657 9.143 5.486 19.2 5.486 30.171v15.543z"/></symbol></svg>